####
#
# OBJ File Generated by Meshlab
#
####
# Object stone_low_poly.obj
#
# Vertices: 52
# Faces: 100
#
####
vn -0.242129 -0.103371 -6.200706
v 0.210154 -0.632123 -0.922059 0.752941 0.752941 0.752941
vn -0.235044 -0.515699 -6.220386
v -0.387532 -0.029908 -0.838212 0.752941 0.752941 0.752941
vn -6.244689 -0.056908 0.240854
v -0.919382 -0.150689 -0.158427 0.752941 0.752941 0.752941
vn -6.199785 0.255020 -0.012871
v -0.983428 0.726492 0.033525 0.752941 0.752941 0.752941
vn -0.782892 5.713944 -0.093999
v 0.249045 0.768162 -0.035385 0.752941 0.752941 0.752941
vn -0.167735 6.131503 -0.966572
v 0.056942 0.916739 0.416958 0.752941 0.752941 0.752941
vn 6.161573 -0.422821 0.322096
v 0.879561 0.199906 -0.262672 0.752941 0.752941 0.752941
vn 5.712078 -1.278416 0.071757
v 0.982672 -0.736869 -0.176473 0.752941 0.752941 0.752941
vn -6.098741 0.290868 -0.496700
v -0.900257 -0.028258 0.322720 0.752941 0.752941 0.752941
vn 0.965282 4.066920 2.949167
v 0.619745 0.886419 0.899050 0.752941 0.752941 0.752941
vn 6.224856 -0.154045 -0.111517
v 0.947799 0.282138 -0.724615 0.752941 0.752941 0.752941
vn -1.609134 1.364282 -4.709862
v -0.681013 0.630500 -0.955320 0.752941 0.752941 0.752941
vn -1.942367 -1.611476 -1.595179
v -0.974190 -0.877230 -0.777620 0.752941 0.752941 0.752941
vn -2.290721 3.590892 -1.171842
v -0.879810 0.923567 -0.589642 0.752941 0.752941 0.752941
vn 0.033507 -2.733186 3.143540
v 0.103367 -0.937680 0.968069 0.752941 0.752941 0.752941
vn 6.265458 -0.066366 0.195834
v 0.909101 -0.350222 0.447530 0.752941 0.752941 0.752941
vn -0.357732 -0.234977 -6.064141
v 0.335494 0.038407 -0.818612 0.752941 0.752941 0.752941
vn 2.922970 0.043739 2.941905
v 0.907572 -0.450127 0.928377 0.752941 0.752941 0.752941
vn 2.310626 2.794152 -1.486468
v 0.892101 0.956304 -0.801169 0.752941 0.752941 0.752941
vn -0.289709 4.893936 -1.964326
v 0.216317 0.977708 -0.841232 0.752941 0.752941 0.752941
vn 0.391559 6.142730 -0.451561
v -0.361185 0.810621 0.094916 0.752941 0.752941 0.752941
vn 2.602202 3.879630 0.162728
v 0.901748 0.955152 0.170386 0.752941 0.752941 0.752941
vn -0.139526 4.371166 2.347939
v -0.479791 0.963170 0.885933 0.752941 0.752941 0.752941
vn 0.002013 -6.153175 0.161597
v -0.161580 -0.859755 -0.499402 0.752941 0.752941 0.752941
vn -0.267962 -3.047109 -3.007096
v -0.252703 -0.902490 -0.874069 0.752941 0.752941 0.752941
vn -2.334796 -4.839983 0.255513
v -0.816325 -0.973329 0.430428 0.752941 0.752941 0.752941
vn 0.006078 -6.274835 -0.181381
v 0.065482 -0.939214 0.270036 0.752941 0.752941 0.752941
vn 0.191281 0.682464 6.139108
v -0.646761 -0.413073 0.959201 0.752941 0.752941 0.752941
vn -0.597064 0.632899 5.698376
v -0.684226 0.718417 1.000458 0.752941 0.752941 0.752941
vn 1.676037 0.233163 5.586982
v -0.472793 -0.071488 0.833169 0.752941 0.752941 0.752941
vn -0.035048 -1.078740 5.996365
v -0.040735 0.321992 0.828866 0.752941 0.752941 0.752941
vn -0.308235 0.256567 6.216000
v 0.424325 -0.121365 0.852214 0.752941 0.752941 0.752941
vn 0.584065 0.718047 5.724289
v 0.568226 0.710201 0.985351 0.752941 0.752941 0.752941
vn 1.538638 -1.896920 1.521545
v 0.840078 -0.978561 0.911755 0.752941 0.752941 0.752941
vn 3.448983 -0.314635 3.219079
v 0.893530 0.177786 0.868192 0.752941 0.752941 0.752941
vn 3.105705 1.305410 2.172393
v 0.957100 0.727355 0.860348 0.752941 0.752941 0.752941
vn 6.097885 0.241158 0.027026
v 0.976700 0.677334 -0.158640 0.752941 0.752941 0.752941
vn 2.701579 -0.261441 -2.988642
v 0.934552 -0.358399 -0.945870 0.752941 0.752941 0.752941
vn -0.168361 1.454541 -5.296525
v 0.163443 0.777978 -1.004849 0.752941 0.752941 0.752941
vn -4.784756 0.972619 -2.093787
v -0.997801 0.589193 -0.690515 0.752941 0.752941 0.752941
vn -4.263494 0.015603 2.564838
v -0.993253 0.132492 0.851455 0.752941 0.752941 0.752941
vn -2.314099 2.184776 2.278205
v -0.876565 0.868121 0.920879 0.752941 0.752941 0.752941
vn -5.791090 -0.992003 -0.203105
v -1.014516 -0.652483 0.317416 0.752941 0.752941 0.752941
vn 2.369827 -3.670218 -1.160352
v 0.834066 -0.964592 -0.605221 0.752941 0.752941 0.752941
vn -0.410221 -6.237725 -0.478823
v 0.293353 -0.917245 -0.546327 0.752941 0.752941 0.752941
vn -1.830503 -1.666258 2.200128
v -0.900031 -0.850888 0.973531 0.752941 0.752941 0.752941
vn -3.576318 -0.173624 -2.683240
v -0.992976 -0.321124 -0.770354 0.752941 0.752941 0.752941
vn 2.500641 0.632183 -3.178622
v 0.904351 0.663574 -0.982074 0.752941 0.752941 0.752941
vn 1.050758 -3.034531 -3.507560
v 0.662576 -0.863507 -0.886624 0.752941 0.752941 0.752941
vn -2.898530 2.976508 -0.050926
v -0.977183 0.904508 0.251427 0.752941 0.752941 0.752941
vn -2.851976 -3.541586 -0.190511
v -0.900844 -0.952495 -0.020514 0.752941 0.752941 0.752941
vn 3.165776 -3.755065 0.380091
v 0.865164 -0.927475 0.188673 0.752941 0.752941 0.752941
# 52 vertices, 0 vertices normals

f 51//51 24//24 26//26
f 25//25 24//24 51//51
f 44//44 52//52 27//27
f 27//27 45//45 44//44
f 24//24 27//27 26//26
f 27//27 24//24 45//45
f 17//17 48//48 38//38
f 25//25 45//45 24//24
f 49//49 1//1 38//38
f 48//48 17//17 39//39
f 38//38 1//1 17//17
f 52//52 44//44 8//8
f 22//22 10//10 36//36
f 49//49 38//38 44//44
f 50//50 41//41 42//42
f 47//47 40//40 12//12
f 20//20 39//39 12//12
f 44//44 38//38 8//8
f 48//48 37//37 11//11
f 36//36 37//37 22//22
f 34//34 18//18 15//15
f 10//10 33//33 36//36
f 42//42 29//29 23//23
f 41//41 28//28 29//29
f 26//26 46//46 43//43
f 13//13 25//25 51//51
f 23//23 50//50 42//42
f 29//29 30//30 31//31
f 28//28 30//30 29//29
f 31//31 32//32 33//33
f 32//32 18//18 35//35
f 32//32 15//15 18//18
f 15//15 32//32 30//30
f 35//35 7//7 36//36
f 37//37 36//36 7//7
f 35//35 16//16 7//7
f 8//8 16//16 52//52
f 8//8 7//7 16//16
f 37//37 7//7 11//11
f 8//8 38//38 7//7
f 21//21 23//23 6//6
f 23//23 21//21 50//50
f 32//32 35//35 33//33
f 30//30 28//28 15//15
f 33//33 29//29 31//31
f 50//50 9//9 41//41
f 50//50 4//4 9//9
f 32//32 31//31 30//30
f 9//9 4//4 3//3
f 21//21 14//14 50//50
f 19//19 20//20 22//22
f 5//5 20//20 14//14
f 22//22 20//20 5//5
f 21//21 5//5 14//14
f 22//22 6//6 10//10
f 6//6 22//22 5//5
f 6//6 5//5 21//21
f 9//9 3//3 43//43
f 3//3 40//40 47//47
f 40//40 3//3 4//4
f 41//41 9//9 43//43
f 13//13 3//3 47//47
f 2//2 17//17 1//1
f 39//39 17//17 2//2
f 39//39 2//2 12//12
f 2//2 47//47 12//12
f 28//28 41//41 46//46
f 23//23 33//33 10//10
f 16//16 35//35 18//18
f 37//37 19//19 22//22
f 37//37 48//48 19//19
f 12//12 40//40 14//14
f 47//47 25//25 13//13
f 43//43 51//51 26//26
f 47//47 2//2 25//25
f 40//40 4//4 14//14
f 4//4 50//50 14//14
f 15//15 28//28 46//46
f 23//23 29//29 33//33
f 3//3 13//13 51//51
f 43//43 46//46 41//41
f 19//19 48//48 39//39
f 16//16 18//18 34//34
f 11//11 38//38 48//48
f 1//1 25//25 2//2
f 41//41 29//29 42//42
f 25//25 49//49 45//45
f 1//1 49//49 25//25
f 20//20 12//12 14//14
f 49//49 44//44 45//45
f 38//38 11//11 7//7
f 19//19 39//39 20//20
f 33//33 35//35 36//36
f 6//6 23//23 10//10
f 52//52 15//15 27//27
f 43//43 3//3 51//51
f 26//26 27//27 15//15
f 26//26 15//15 46//46
f 34//34 15//15 52//52
f 52//52 16//16 34//34
# 100 faces, 0 coords texture

# End of File
